<?xml version="1.0" encoding="utf-8"?>
<!-- Generator: Adobe Illustrator 15.0.0, SVG Export Plug-In . SVG Version: 6.00 Build 0)  -->
<!DOCTYPE svg PUBLIC "-//W3C//DTD SVG 1.1//EN" "http://www.w3.org/Graphics/SVG/1.1/DTD/svg11.dtd">
<svg version="1.1"
	 id="svg2" xmlns:dc="http://purl.org/dc/elements/1.1/" xmlns:cc="http://creativecommons.org/ns#" xmlns:rdf="http://www.w3.org/1999/02/22-rdf-syntax-ns#" xmlns:svg="http://www.w3.org/2000/svg" xmlns:sodipodi="http://sodipodi.sourceforge.net/DTD/sodipodi-0.dtd" xmlns:inkscape="http://www.inkscape.org/namespaces/inkscape" inkscape:version="0.46" sodipodi:docname="Conejo.svg" sodipodi:version="0.32" inkscape:output_extension="org.inkscape.output.svg.inkscape"
	 xmlns="http://www.w3.org/2000/svg" xmlns:xlink="http://www.w3.org/1999/xlink" x="0px" y="0px" width="989.79px"
	 height="1194.807px" viewBox="0 0 989.79 1194.807" enable-background="new 0 0 989.79 1194.807" xml:space="preserve">
<defs>
	
	
		<inkscape:perspective  inkscape:vp_z="744.09448 : 526.18109 : 1" inkscape:vp_y="0 : 1000 : 0" inkscape:vp_x="0 : 526.18109 : 1" sodipodi:type="inkscape:persp3d" id="perspective10" inkscape:persp3d-origin="372.04724 : 350.78739 : 1">
		</inkscape:perspective>
</defs>
<sodipodi:namedview  pagecolor="#ffffff" inkscape:cy="597.4032" inkscape:cx="284.24969" inkscape:zoom="0.59507549" showgrid="false" borderopacity="1.0" bordercolor="#666666" id="base" inkscape:window-y="25" inkscape:window-x="0" inkscape:window-height="949" inkscape:window-width="1279" inkscape:current-layer="layer1" inkscape:document-units="px" inkscape:pageshadow="2" inkscape:pageopacity="0.0">
	</sodipodi:namedview>
<path id="path2383" sodipodi:nodetypes="czzzzzzz" fill="#FFFFFF" stroke="#000000" stroke-width="19" stroke-linecap="round" d="
	M363.495,506.083c-42.829-15.226-62.886-48.678-86.908-94.913c-24.022-46.234-50.151-153.361-59.956-205.627
	c-9.805-52.267-11.903-81.975-10.568-134.001c1.308-51.002,35.202-75.978,70.751-54.081c36.202,22.298,53.121,55.508,72.324,111.914
	c19.329,56.774,33.095,118.13,44.869,168.108c11.775,49.978,29.06,137.878,27.661,150.006"/>
<path id="path2385" sodipodi:nodetypes="cczzzzcc" fill="#FFFFFF" stroke="#000000" stroke-width="19" stroke-linecap="round" d="
	M566.112,424.583c8.357-76.309,6.795-77.386,13.199-119.124c8.83-65.695,21.58-109.631,36.777-160.581
	c15.197-50.95,27.979-80.755,56.686-102.199c28.451-21.253,51.662-11.96,67.318,18.471c15.928,30.957,6.857,125.013-0.9,181.136
	c-7.775,56.257-18.971,98.045-31.398,139.984c-11.994,43.659-37.178,90.254-54.979,130.759"/>
<path id="path2393" sodipodi:nodetypes="czzzzzzzc" fill="#FFFFFF" stroke="#000000" stroke-width="19" stroke-linecap="round" d="
	M374.287,807.7c-22.836,43.665-52.943,121.581-62.489,159.429c-9.546,37.848-8.454,60.003-3.962,84.514s29.866,33.939,49.91,40.955
	c20.045,7.016,37.374,14.634,90.225,16.539c52.866,1.906,81.274-3.098,107.815-16.813c26.953-13.929,68.736-52.304,75.783-90.014
	c7.045-37.71,4.334-48.39,4.049-77.205s-6.262-68.331-23.291-104.85"/>
<path id="path2395" sodipodi:nodetypes="czzzzzzz" fill="none" stroke="#000000" stroke-width="10" stroke-linecap="round" d="
	M399.892,849.107c-6.474,10.728-12.458,18.911-18.194,40.012c-5.604,20.613-7.255,34.363-5.613,47.346
	c1.643,12.982,5.791,17.704,15.874,20.553c10.082,2.849,23.4-1.099,33.587-8.059s16.931-17.578,23.471-27.153
	c6.539-9.574,10.263-21.918,11.554-31.6c1.292-9.682-0.513-20.342-0.841-24.871"/>
<path id="path2397" sodipodi:nodetypes="czzzzzzz" fill="none" stroke="#000000" stroke-width="10" stroke-linecap="round" d="
	M531.512,872.922c0.281-2.575-4.813,30.987-4.9,44.891c-0.09,13.903,3.709,27.63,9.445,36.356
	c5.734,8.727,10.422,12.728,17.508,15.243c7.088,2.515,18.146,1.613,25.121-1.176c6.973-2.788,11.592-4.26,18.002-22.221
	c6.348-17.79,5.926-20.009,5.473-39.408c-0.455-19.418-9.873-39.794-11.742-43.379"/>
<path id="path2399" sodipodi:nodetypes="czzzzzz" fill="#FFFFFF" stroke="#000000" stroke-width="19" stroke-linecap="round" d="
	M302.148,1087.242c-34.754,10.238-61.406,28.066-74.145,39.516c-12.942,11.633-26.378,23.428-27.975,32.025
	c-1.53,8.24-0.793,16.928,7.762,22.816s19.242,3.936,42.116-0.142c22.935-4.087,51.676-10.772,71.526-19.092
	c20.165-8.452,35.11-15.049,59.863-38.951"/>
<path id="path2401" sodipodi:nodetypes="ccccccczc" fill="#FFFFFF" stroke="#000000" stroke-width="19" stroke-linecap="round" d="
	M545.006,1121.1c1.441,8.38,10.295,15.894,15.516,21.822c13.318,14.547,33.076,19.712,51.588,24.016
	c19.02,4.106,34.793,6.229,54.607,3.414c13.844-2.758,20.721-5.538,27.926-14.412c6.232-7.899,10.695-18.531,7.227-28.563
	c-3.207-11.866-13.943-24.722-25.602-29.658c-18.23-8.671-26.141-7.09-42.109-15.481c-16.262-8.544-12.602-8.69-17.393-11.101"/>
<path id="path2403" sodipodi:nodetypes="czzczczczz" fill="#FFFFFF" stroke="#000000" stroke-width="19" stroke-linecap="round" d="
	M440.819,462.119c-33.162,24.749-60.884,62.114-86.114,101.7c-25.078,39.35-78.686,131.086-55.667,170.728
	c23.154,39.872,80.123,56.758,105.985,61.96c58.093,8.105,174.325,10.905,201.434,4.362c27.107-6.544,46.717-12.983,64.475-28.915
	c17.068-16.774,23.039-33.167,26.506-63.198c3.465-30.031-8.244-75.955-27.332-108.514
	c-23.107-48.059-79.385-123.26-115.758-149.151C517.625,424.95,474.232,437.184,440.819,462.119z"/>
<path id="path3185" sodipodi:type="arc" sodipodi:cx="318.59488" sodipodi:cy="486.95804" sodipodi:rx="6.2904911" sodipodi:ry="82.146416" fill="#F6B417" stroke="#000000" stroke-width="19" stroke-linecap="round" stroke-linejoin="round" d="
	M449.514,627.841c0,45.369-2.816,82.147-6.29,82.147c-3.475,0-6.291-36.778-6.291-82.147l0,0c0-45.368,2.816-82.146,6.291-82.146
	C446.697,545.694,449.514,582.473,449.514,627.841z"/>
<path id="path3187" sodipodi:type="arc" sodipodi:cx="318.59488" sodipodi:cy="486.95804" sodipodi:rx="6.2904911" sodipodi:ry="82.146416" fill="#F6B417" stroke="#000000" stroke-width="19" stroke-linecap="round" stroke-linejoin="round" d="
	M559.413,631.542c0,45.368-2.816,82.146-6.291,82.146s-6.291-36.778-6.291-82.146l0,0c0-45.368,2.816-82.146,6.291-82.146
	S559.413,586.174,559.413,631.542z"/>
</svg>
